<svg height='100px' width='100px'  fill="#f8bd7a" xmlns="http://www.w3.org/2000/svg" xmlns:xlink="http://www.w3.org/1999/xlink" viewBox="0 0 24 24" version="1.1" x="0px" y="0px"><title>icon/hub-alt</title><desc>Created with Sketch.</desc><g stroke="none" stroke-width="1" fill="none" fill-rule="evenodd"><path d="M18,15 C17.538,15 17.105,15.113 16.715,15.301 L14.699,13.285 C14.887,12.895 15,12.462 15,12 C15,10.698 14.161,9.599 13,9.185 L13,6.815 C14.161,6.401 15,5.302 15,4 C15,2.346 13.654,1 12,1 C10.346,1 9,2.346 9,4 C9,5.302 9.839,6.401 11,6.815 L11,9.185 C9.839,9.599 9,10.698 9,12 C9,12.462 9.113,12.895 9.301,13.285 L7.285,15.301 C6.895,15.113 6.462,15 6,15 C4.346,15 3,16.346 3,18 C3,19.654 4.346,21 6,21 C7.654,21 9,19.654 9,18 C9,17.538 8.887,17.105 8.699,16.715 L10.715,14.699 C11.105,14.887 11.538,15 12,15 C12.462,15 12.895,14.887 13.285,14.699 L15.301,16.715 C15.113,17.105 15,17.538 15,18 C15,19.654 16.346,21 18,21 C19.654,21 21,19.654 21,18 C21,16.346 19.654,15 18,15" fill="#f8bd7a"></path></g></svg>