<?xml version="1.0" encoding="UTF-8"?>
<svg width="1200pt" height="1200pt" version="1.1" viewBox="0 0 1200 1200" xmlns="http://www.w3.org/2000/svg">
 <g fill="#fff">
  <path d="m406.05 493.65h66.75v-310.8c0.039063-12.707 5.1133-24.875 14.109-33.848 9-8.9688 21.184-14.004 33.891-14.004h158.25c12.715-0.039062 24.926 4.9844 33.93 13.961 9.0078 8.9805 14.07 21.172 14.07 33.891v310.8h66.898c13.598-0.03125 26.695 5.1367 36.602 14.449 9.9102 9.3125 15.883 22.062 16.691 35.637 0.80469 13.574-3.6094 26.941-12.344 37.367l-193.95 232.35c-10.145 12.125-25.141 19.129-40.949 19.129s-30.805-7.0039-40.949-19.129l-194.1-232.35c-8.7422-10.438-13.16-23.828-12.336-37.418 0.82031-13.59 6.8164-26.348 16.758-35.656 9.9375-9.3047 23.062-14.449 36.68-14.379z"/>
  <path d="m352.35 1037.7v-55.051c0.039063-7.1719 2.9141-14.039 8.0039-19.098 5.0859-5.0625 11.969-7.9023 19.145-7.9023h441c7.1758 0 14.059 2.8398 19.145 7.9023 5.0898 5.0586 7.9648 11.926 8.0039 19.098v55.051c0 7.2148-2.8555 14.137-7.9414 19.254-5.0859 5.1133-11.992 8.0078-19.207 8.0469h-441c-7.2148-0.039062-14.121-2.9336-19.207-8.0469-5.0859-5.1172-7.9414-12.039-7.9414-19.254z"/>
 </g>
</svg>
