<?xml version="1.0" encoding="UTF-8" standalone="no"?>
<svg
   width="495.29779pt"
   height="930.00311pt"
   version="1.1"
   viewBox="0 0 495.29779 930.00311"
   id="svg138"
   sodipodi:docname="download.svg"
   inkscape:version="1.2.1 (9c6d41e, 2022-07-14)"
   xmlns:inkscape="http://www.inkscape.org/namespaces/inkscape"
   xmlns:sodipodi="http://sodipodi.sourceforge.net/DTD/sodipodi-0.dtd"
   xmlns="http://www.w3.org/2000/svg"
   xmlns:svg="http://www.w3.org/2000/svg">
  <defs
     id="defs142" />
  <sodipodi:namedview
     id="namedview140"
     pagecolor="#ffffff"
     bordercolor="#000000"
     borderopacity="0.25"
     inkscape:showpageshadow="2"
     inkscape:pageopacity="0.0"
     inkscape:pagecheckerboard="0"
     inkscape:deskcolor="#d1d1d1"
     inkscape:document-units="pt"
     showgrid="false"
     inkscape:zoom="0.1475"
     inkscape:cx="332.20339"
     inkscape:cy="616.94915"
     inkscape:window-width="1309"
     inkscape:window-height="456"
     inkscape:window-x="0"
     inkscape:window-y="38"
     inkscape:window-maximized="0"
     inkscape:current-layer="svg138" />
  <g
     fill="#ffffff"
     id="g136"
     transform="translate(-352.35,-134.99777)">
    <path
       d="m 406.05,493.65 h 66.75 v -310.8 c 0.0391,-12.707 5.1133,-24.875 14.109,-33.848 9,-8.9688 21.184,-14.004 33.891,-14.004 h 158.25 c 12.715,-0.0391 24.926,4.9844 33.93,13.961 9.0078,8.9805 14.07,21.172 14.07,33.891 v 310.8 h 66.898 c 13.598,-0.0312 26.695,5.1367 36.602,14.449 9.9102,9.3125 15.883,22.062 16.691,35.637 0.80469,13.574 -3.6094,26.941 -12.344,37.367 l -193.95,232.35 c -10.145,12.125 -25.141,19.129 -40.949,19.129 -15.808,0 -30.805,-7.0039 -40.949,-19.129 l -194.1,-232.35 c -8.7422,-10.438 -13.16,-23.828 -12.336,-37.418 0.82031,-13.59 6.8164,-26.348 16.758,-35.656 9.9375,-9.3047 23.062,-14.449 36.68,-14.379 z"
       id="path132" />
    <path
       d="m 352.35,1037.7 v -55.051 c 0.0391,-7.1719 2.9141,-14.039 8.0039,-19.098 5.0859,-5.0625 11.969,-7.9023 19.145,-7.9023 h 441 c 7.1758,0 14.059,2.8398 19.145,7.9023 5.0898,5.0586 7.9648,11.926 8.0039,19.098 v 55.051 c 0,7.2148 -2.8555,14.137 -7.9414,19.254 -5.0859,5.1133 -11.992,8.0078 -19.207,8.0469 h -441 c -7.2148,-0.039 -14.121,-2.9336 -19.207,-8.0469 -5.0859,-5.1172 -7.9414,-12.039 -7.9414,-19.254 z"
       id="path134" />
  </g>
</svg>
