<?xml version="1.0" encoding="UTF-8" standalone="no"?>
<svg
   width="566.7854pt"
   height="661.25299pt"
   version="1.1"
   viewBox="0 0 566.7854 661.25299"
   id="svg134"
   sodipodi:docname="trash.svg"
   inkscape:version="1.2.1 (9c6d41e, 2022-07-14)"
   xmlns:inkscape="http://www.inkscape.org/namespaces/inkscape"
   xmlns:sodipodi="http://sodipodi.sourceforge.net/DTD/sodipodi-0.dtd"
   xmlns="http://www.w3.org/2000/svg"
   xmlns:svg="http://www.w3.org/2000/svg">
  <defs
     id="defs138" />
  <sodipodi:namedview
     id="namedview136"
     pagecolor="#ffffff"
     bordercolor="#000000"
     borderopacity="0.25"
     inkscape:showpageshadow="2"
     inkscape:pageopacity="0.0"
     inkscape:pagecheckerboard="0"
     inkscape:deskcolor="#d1d1d1"
     inkscape:document-units="pt"
     showgrid="false"
     inkscape:zoom="0.1475"
     inkscape:cx="379.66102"
     inkscape:cy="440.67797"
     inkscape:window-width="1309"
     inkscape:window-height="456"
     inkscape:window-x="0"
     inkscape:window-y="38"
     inkscape:window-maximized="0"
     inkscape:current-layer="svg134" />
  <path
     d="M 165.31,70.851 H 47.23 C 21.136,70.851 0,91.984 0,118.081 v 47.23 c 0,26.098 21.137,47.234 47.23,47.234 h 1.3477 l 22.625,382.04 c 2.2188,37.457 33.227,66.668 70.73,66.668 h 282.92 c 37.504,0 68.512,-29.211 70.73,-66.668 l 22.625,-382.04 h 1.3477 c 26.094,0 47.23,-21.137 47.23,-47.234 v -47.23 c 0,-26.098 -21.137,-47.23 -47.23,-47.23 h -118.08 V 47.234 C 401.4754,21.136 380.3384,0 354.2454,0 h -141.7 c -26.094,0 -47.23,21.137 -47.23,47.234 z m -69.406,141.7 h 374.97 l -22.457,379.25 c -0.73438,12.492 -11.078,22.223 -23.57,22.223 h -282.92 c -12.496,0 -22.84,-9.7305 -23.57,-22.223 z m 163.87,70.848 v 259.78 c 0,13.035 10.578,23.617 23.613,23.617 13.039,0 23.617,-10.582 23.617,-23.617 v -259.78 c 0,-13.035 -10.578,-23.617 -23.617,-23.617 -13.035,0 -23.613,10.582 -23.613,23.617 z m 94.465,0 v 259.78 c 0,13.035 10.578,23.617 23.613,23.617 13.039,0 23.617,-10.582 23.617,-23.617 v -259.78 c 0,-13.035 -10.578,-23.617 -23.617,-23.617 -13.035,0 -23.613,10.582 -23.613,23.617 z m -188.93,0 v 259.78 c 0,13.035 10.578,23.617 23.617,23.617 13.035,0 23.613,-10.582 23.613,-23.617 v -259.78 c 0,-13.035 -10.578,-23.617 -23.613,-23.617 -13.039,0 -23.617,10.582 -23.617,23.617 z m 354.24,-165.31 H 47.229 v 47.23 h 472.32 z m -307.01,-47.23 h 141.7 V 47.242 h -141.7 z"
     fill="#ffffff"
     fill-rule="evenodd"
     id="path132" />
</svg>
