<?xml version="1.0" encoding="UTF-8"?>
<svg width="1200pt" height="1200pt" version="1.1" viewBox="0 0 1200 1200" xmlns="http://www.w3.org/2000/svg">
 <g fill="#9ba3af">
  <path d="m327.77 108.16c-85.078 48.047-157.5 119.65-206.6 204.26-50.273 86.602-76.523 187.62-74.531 287.7 1.875 93.164 27.188 185.51 73.711 266.37 44.883 77.93 109.34 144.02 185.04 192.3 78.398 49.922 169.22 77.578 261.8 83.789 47.461 3.1641 95.156-1.0547 141.8-9.8438 45.234-8.5547 88.477-24.141 130.2-43.594 41.602-19.336 79.102-44.883 114.61-73.711 35.156-28.477 64.57-61.758 91.875-97.734 24.023-31.523 43.945-66.094 59.648-102.54 18.398-42.891 32.93-86.25 40.078-132.54 7.5-49.219 10.664-98.438 4.9219-148.01-5.7422-50.391-16.055-99.375-35.273-146.37-18.75-45.82-41.133-88.828-71.367-128.2-16.641-21.797-33.867-42.891-53.32-62.227-19.336-19.102-40.312-36.094-61.875-52.5-16.875-12.891-34.453-24.492-52.852-35.156-15.82-9.1406-36.445-11.953-54.141-7.0312-16.289 4.4531-33.984 17.109-42.07 32.344-8.6719 16.289-12.891 36.094-7.0312 54.141 5.625 17.344 16.172 32.695 32.344 42.07 19.102 11.016 37.383 23.203 54.844 36.68-4.6875-3.6328-9.4922-7.3828-14.18-11.016 32.93 25.547 62.461 55.078 88.008 88.008-3.6328-4.6875-7.3828-9.4922-11.016-14.18 25.195 32.812 46.172 68.672 62.344 106.76-2.3438-5.625-4.6875-11.25-7.0312-16.758 16.641 39.492 27.891 81.094 33.633 123.63-0.82031-6.2109-1.6406-12.422-2.4609-18.75 5.625 42.891 5.625 86.484-0.11719 129.38 0.82031-6.2109 1.6406-12.422 2.4609-18.75-5.7422 42.305-17.109 83.672-33.633 123.05 2.3438-5.625 4.6875-11.25 7.0312-16.758-16.289 38.438-37.5 74.531-63.047 107.58 3.6328-4.6875 7.3828-9.4922 11.016-14.18-25.078 32.344-54.141 61.406-86.484 86.484 4.6875-3.6328 9.4922-7.3828 14.18-11.016-33.047 25.547-69.141 46.758-107.58 63.047 5.625-2.3438 11.25-4.6875 16.758-7.0312-39.375 16.523-80.742 27.891-123.05 33.633 6.2109-0.82031 12.422-1.6406 18.75-2.4609-43.125 5.7422-86.953 5.7422-130.08 0 6.2109 0.82031 12.422 1.6406 18.75 2.4609-42.305-5.7422-83.672-17.109-123.05-33.633 5.625 2.3438 11.25 4.6875 16.758 7.0312-38.438-16.289-74.531-37.5-107.58-63.047 4.6875 3.6328 9.4922 7.3828 14.18 11.016-32.344-25.078-61.406-54.141-86.484-86.484 3.6328 4.6875 7.3828 9.4922 11.016 14.18-25.547-33.047-46.758-69.141-63.047-107.58 2.3438 5.625 4.6875 11.25 7.0312 16.758-16.523-39.375-27.891-80.742-33.633-123.05 0.82031 6.2109 1.6406 12.422 2.4609 18.75-5.7422-42.891-5.7422-86.367-0.11719-129.26-0.82031 6.2109-1.6406 12.422-2.4609 18.75 5.7422-42.422 16.992-83.906 33.516-123.4-2.3438 5.625-4.6875 11.25-7.0312 16.758 16.289-38.555 37.5-74.766 63.047-107.81-3.6328 4.6875-7.3828 9.4922-11.016 14.18 25.195-32.344 54.258-61.523 86.602-86.602-4.6875 3.6328-9.4922 7.3828-14.18 11.016 18.75-14.414 38.438-27.539 59.062-39.141 15.234-8.6719 27.656-25.195 32.344-42.07s2.5781-39.258-7.0312-54.141c-9.7266-15-24.141-28.242-42.07-32.344-18.867-4.4531-37.5-2.6953-54.375 6.7969z"/>
  <path d="m529.69 127.73v45.703 110.27 132.77 114.84c0 18.633-0.23438 37.266 0 56.016v0.82031c0 18.047 7.8516 36.914 20.625 49.688 12.188 12.188 32.227 21.328 49.688 20.625 18.164-0.82031 37.031-6.7969 49.688-20.625 12.656-13.711 20.625-30.703 20.625-49.688v-45.703-110.27-132.77-114.84c0-18.633 0.23438-37.266 0-56.016v-0.82031c0-18.047-7.8516-36.914-20.625-49.688-12.188-12.305-32.227-21.445-49.688-20.625-18.164 0.82031-37.031 6.7969-49.688 20.625-12.656 13.711-20.625 30.586-20.625 49.688z"/>
 </g>
</svg>
